<svg xmlns="http://www.w3.org/2000/svg" id="Camada_1" version="1.1" viewBox="0 0 841.89 595.28">
  <!-- Generator: Adobe Illustrator 29.1.0, SVG Export Plug-In . SVG Version: 2.1.0 Build 142)  -->
  <defs fill="#f7f7f7">
    <style>
      .st0 {
        fill: #ff494a;
      }
    </style>
  </defs>
  <path class="st0" d="M472.14,318.73c.42-.32.85-.65,1.29-1-.44.35-.87.68-1.29,1Z" fill="#f7f7f7"/>
  <path class="st0" d="M458.55,272.84c-.6-.29-1.23-.59-1.88-.9-.1-.05-.2-.1-.31-.14-.59-.27-1.2-.55-1.83-.83-.05-.02-.11-.05-.16-.07-.04-.02-.08-.04-.13-.05-.51-.22-1.03-.45-1.57-.67-.13-.06-.27-.11-.4-.17-.57-.23-1.14-.47-1.74-.71-.02,0-.05-.02-.07-.03-.6-.24-1.22-.48-1.86-.71-.08-.03-.15-.06-.23-.08-.03-.01-.06-.02-.09-.03-.48-.18-.96-.35-1.46-.53-.18-.06-.36-.13-.54-.19-.03,0-.05-.02-.08-.03-.39-.13-.77-.27-1.17-.4-.12-.04-.25-.08-.37-.12-.11-.04-.22-.07-.33-.11-.36-.12-.72-.24-1.1-.36-.23-.07-.47-.15-.7-.22-.37-.12-.74-.23-1.12-.34-.08-.02-.16-.05-.23-.07-.06-.02-.13-.04-.19-.06-.88-.26-1.79-.52-2.71-.77-.04-.01-.09-.02-.13-.04-.01,0-.02,0-.03,0-.42-.11-.85-.23-1.28-.34-.11-.03-.22-.06-.33-.08-.02,0-.04-.01-.06-.02-1.17-.3-2.37-.58-3.6-.85-.54-.12-1.07-.24-1.57-.34-1.04-.22-2.11-.42-3.2-.61,0,0-1.4-.25-2.73-.46-16.88-2.67-33-.92-41.37.41,6.53-2.07,13.94-3.73,22.2-4.44,21.07-1.81,37.66,3.36,46.27,6.73l-59.3-35.74c-15.92-9.59-36.21,1.87-36.21,20.46.02,8.69.04,17.39.06,26.08v36.15c.85-.27,1.71-.54,2.59-.8.83-.25,1.68-.5,2.54-.74.02,0,.04-.01.07-.02,12.54-3.53,27.23-5.89,43.67-5.44.94.02,1.88.05,2.81.1,10.49.49,20.16,2.07,28.95,4.3-8.93-.64-18.59-.53-28.85.77-11.97,1.52-22.78,4.39-32.4,7.96-11.65,4.33-19.37,15.46-19.37,27.89h0c0,18.58,20.29,30.05,36.21,20.46l72.75-43.84s0,0,0,0l2.75-1.66c.4-.26.83-.55,1.28-.85,0,0,0,0,0,0,.19-.13.38-.27.58-.4.12-.08.23-.16.35-.24,0,0,.02-.01.03-.02.02-.02.05-.03.07-.05.31-.22.63-.46.96-.7.02-.02.05-.04.07-.05.02-.02.05-.04.07-.06h0c.88-.66,1.79-1.39,2.72-2.19.15-.13.3-.25.45-.39.18-.16.37-.33.55-.5.21-.19.42-.38.62-.57.17-.16.34-.33.51-.5.22-.21.44-.43.65-.65.16-.17.32-.34.49-.51.22-.23.43-.46.65-.7.16-.17.31-.35.47-.53.21-.24.42-.49.62-.74.15-.18.3-.37.44-.55.2-.26.4-.52.59-.78.14-.19.28-.38.41-.57.19-.27.37-.54.55-.82.13-.2.25-.39.37-.59.17-.28.33-.57.5-.86.11-.2.22-.4.33-.6.16-.3.3-.61.44-.93.09-.2.19-.39.27-.59.15-.34.27-.7.4-1.05.06-.17.13-.34.19-.51.17-.53.32-1.06.44-1.61.25-1.41.38-2.85.38-4.28h0c-.61-12.1-15.24-19.27-26.63-24.86Z" fill="#f7f7f7"/>
</svg>